<svg data-v-0dd9719b="" version="1.0" xmlns="http://www.w3.org/2000/svg" xmlns:xlink="http://www.w3.org/1999/xlink" width="100%" height="100%" viewBox="0 0 340.000000 250.000000" preserveAspectRatio="xMidYMid meet" color-interpolation-filters="sRGB" style="margin: auto;">   <g data-v-0dd9719b="" fill="#fa8bff" class="basesvg" transform="translate(83.29000091552734,94.73875045776367)"><g data-gra="path-name" fill-rule="" class="tp-name" transform="translate(0,0)"><g transform="scale(1)"><g><path d="M43.42 0.07L4.62 0.07Q4.55 0.07 4.55 0L4.55 0 4.55-45.44Q4.55-45.5 4.62-45.5L4.62-45.5 13.71-45.5Q13.71-45.5 13.71-45.44L13.71-45.44 13.71-9.17 43.42-9.17Q43.42-9.17 43.42-9.1L43.42-9.1 43.42 0Q43.42 0.07 43.42 0.07L43.42 0.07ZM61.69-9.1L61.69-9.1Q58.83-9.1 56.36-10.17 53.89-11.25 52.03-13.1 50.18-14.95 49.11-17.42 48.04-19.89 48.04-22.75L48.04-22.75Q48.04-25.55 49.11-28.05 50.18-30.55 52.03-32.37 53.89-34.19 56.36-35.26 58.83-36.34 61.69-36.34L61.69-36.34Q64.48-36.34 66.98-35.26 69.49-34.19 71.34-32.37 73.19-30.55 74.26-28.05 75.34-25.55 75.34-22.75L75.34-22.75Q75.34-19.89 74.26-17.42 73.19-14.95 71.34-13.1 69.49-11.25 66.98-10.17 64.48-9.1 61.69-9.1ZM114.08-22.75L123.18-22.75Q123.24-22.75 123.24-22.75L123.24-22.75 123.24-6.63 123.24-6.63Q121.62-5 119.73-3.71L119.73-3.71Q116.87-1.89 113.69-0.91 110.5 0.07 107.12 0.07L107.12 0.07Q106.02 0.07 104.98-0.07L104.98-0.07Q101.01-0.46 97.44-2.11 93.86-3.77 91-6.63L91-6.63Q87.75-9.88 86.06-14.01 84.37-18.14 84.37-22.75L84.37-22.75 84.37-22.75 84.37-22.75Q84.37-27.43 82.58-31.56 80.8-35.69 77.71-38.77 74.62-41.86 70.49-43.65 66.37-45.44 61.69-45.44L61.69-45.44Q61.62-45.44 61.62-45.44L61.62-45.44Q61.62-45.5 61.69-45.5L61.69-45.5 107.12-45.5 107.12-45.5Q111.74-45.5 115.86-43.78 119.99-42.05 123.24-38.8L123.24-38.8Q123.24-38.8 123.24-38.74L123.24-38.74 116.81-32.3Q116.74-32.3 116.74-32.3L116.74-32.3Q114.73-34.32 112.22-35.33 109.72-36.34 107.12-36.34 104.52-36.34 102.02-35.33 99.52-34.32 97.5-32.3L97.5-32.3Q95.55-30.36 94.54-27.85 93.54-25.35 93.54-22.75 93.54-20.15 94.54-17.62 95.55-15.08 97.5-13.13L97.5-13.13Q99.19-11.44 101.21-10.46 103.22-9.49 105.43-9.23 107.64-8.97 109.85-9.43 112.06-9.88 114.08-11.05L114.08-11.05 114.08-22.75Q114.08-22.75 114.08-22.75L114.08-22.75ZM155.16 0.07L155.16 0.07Q150.48 0.07 146.32-1.72 142.16-3.51 139.07-6.63 135.98-9.75 134.19-13.88 132.41-18 132.41-22.75L132.41-22.75Q132.41-27.43 134.19-31.59 135.98-35.75 139.07-38.84 142.16-41.93 146.32-43.71 150.48-45.5 155.16-45.5L155.16-45.5Q159.9-45.5 164.03-43.71 168.16-41.93 171.28-38.84 174.4-35.75 176.18-31.59 177.97-27.43 177.97-22.75L177.97-22.75Q177.97-18 176.18-13.88 174.4-9.75 171.28-6.63 168.16-3.51 164.03-1.72 159.9 0.07 155.16 0.07ZM141.57-22.75L141.57-22.75Q141.57-19.89 142.64-17.42 143.72-14.95 145.57-13.13 147.42-11.31 149.89-10.24 152.36-9.17 155.16-9.17L155.16-9.17Q158.02-9.17 160.49-10.24 162.96-11.31 164.81-13.13 166.66-14.95 167.7-17.42 168.74-19.89 168.74-22.75L168.74-22.75Q168.74-25.55 167.7-28.02 166.66-30.48 164.81-32.34 162.96-34.19 160.49-35.26 158.02-36.34 155.16-36.34L155.16-36.34Q152.36-36.34 149.89-35.26 147.42-34.19 145.57-32.34 143.72-30.48 142.64-28.02 141.57-25.55 141.57-22.75Z" transform="translate(-4.550000190734863, 45.5)"></path></g> <!----> <!----> <!----> <!----> <!----> <!----> <!----></g></g> <g data-gra="path-slogan" fill-rule="" class="tp-slogan" fill="#fa8bff" transform="translate(5,51.56999969482422)"><rect x="0" height="1" y="3.9750003814697266" width="2.089996337890625"></rect> <rect height="1" y="3.9750003814697266" width="2.089996337890625" x="161.3300018310547"></rect> <g transform="translate(5.089996337890625,0)"><g transform="scale(1)"><path d="M5.02-3.70L2.20-3.70L2.20 0L1.03 0L1.03-8.58L5.02-8.58Q7.88-8.58 7.88-6.28L7.88-6.28Q7.88-4.88 6.66-4.22L6.66-4.22Q7.69-3.94 7.69-2.58L7.69-2.58L7.78-1.03Q7.73-0.38 8.20-0.19L8.20-0.19L8.20 0L6.75 0Q6.61-0.61 6.56-2.16L6.56-2.16Q6.61-3.70 5.02-3.70L5.02-3.70ZM5.11-7.64L2.20-7.64L2.20-4.69L4.92-4.69Q6.66-4.69 6.66-6.19L6.66-6.19Q6.66-7.64 5.11-7.64L5.11-7.64ZM10.69-5.06L15.19-5.06L15.19-8.58L16.36-8.58L16.36 0L15.19 0L15.19-3.98L10.69-3.98L10.69 0L9.52 0L9.52-8.58L10.69-8.58L10.69-5.06ZM18.33-8.58L19.50-8.58L19.50 0L18.33 0L18.33-8.58ZM22.88-8.58L27.19-1.64L27.19-8.58L28.31-8.58L28.31 0L27 0L22.64-6.94L22.59-6.94L22.59 0L21.47 0L21.47-8.58L22.88-8.58ZM30.75-8.58L33.19-1.27L35.67-8.58L36.98-8.58L33.84 0L32.58 0L29.44-8.58L30.75-8.58ZM43.73 0L42.89-2.48L39.42-2.48L38.53 0L37.36 0L40.59-8.58L41.91-8.58L45 0L43.73 0ZM41.16-7.31L39.80-3.52L42.47-3.52L41.20-7.31L41.16-7.31ZM53.20-6.05L53.20-6.05L52.08-6.05Q51.66-7.78 49.69-7.83L49.69-7.83Q46.97-7.69 46.88-4.36L46.88-4.36Q46.88-0.80 49.73-0.80L49.73-0.80Q51.70-0.84 52.17-3.19L52.17-3.19L53.30-3.19Q52.78 0.05 49.50 0.14L49.50 0.14Q45.75 0 45.66-4.31L45.66-4.31Q45.84-8.63 49.69-8.81L49.69-8.81Q52.73-8.72 53.20-6.05ZM60.33 0L59.48-2.48L56.02-2.48L55.13 0L53.95 0L57.19-8.58L58.50-8.58L61.59 0L60.33 0ZM57.75-7.31L56.39-3.52L59.06-3.52L57.80-7.31L57.75-7.31ZM64.83-7.59L61.92-7.59L61.92-8.58L68.86-8.58L68.86-7.59L65.95-7.59L65.95 0L64.83 0L64.83-7.59ZM70.08-8.58L71.25-8.58L71.25 0L70.08 0L70.08-8.58ZM80.02-4.27L80.02-4.27Q79.83-7.64 77.02-7.83L77.02-7.83Q74.16-7.69 74.02-4.27L74.02-4.27Q74.16-0.94 77.02-0.80L77.02-0.80Q79.83-0.98 80.02-4.27ZM81.19-4.27L81.19-4.27Q80.91 0 77.02 0.14L77.02 0.14Q73.08 0 72.80-4.27L72.80-4.27Q73.03-8.72 77.02-8.81L77.02-8.81Q80.91-8.67 81.19-4.27ZM83.95-8.58L88.27-1.64L88.27-8.58L89.39-8.58L89.39 0L88.08 0L83.72-6.94L83.67-6.94L83.67 0L82.55 0L82.55-8.58L83.95-8.58ZM91.31-1.27L92.58-1.27L92.58 0L91.31 0L91.31-1.27ZM100.92-3.61L98.30-3.61L98.30-4.59L102.05-4.59L102.05 0L101.30 0L101.02-1.08Q100.03 0.09 98.20 0.14L98.20 0.14Q96.47 0.14 95.53-0.75L95.53-0.75Q94.13-2.06 94.17-4.36L94.17-4.36Q94.50-8.63 98.25-8.81L98.25-8.81Q101.44-8.63 101.91-6L101.91-6L100.78-6Q100.31-7.78 98.20-7.83L98.20-7.83Q95.53-7.64 95.39-4.31L95.39-4.31Q95.39-0.75 98.25-0.75L98.25-0.75Q99.28-0.75 100.03-1.31L100.03-1.31Q100.97-2.06 100.92-3.61L100.92-3.61ZM104.02-8.58L105.19-8.58L105.19 0L104.02 0L104.02-8.58ZM109.36-7.59L106.45-7.59L106.45-8.58L113.39-8.58L113.39-7.59L110.48-7.59L110.48 0L109.36 0L109.36-7.59ZM115.59-5.06L120.09-5.06L120.09-8.58L121.27-8.58L121.27 0L120.09 0L120.09-3.98L115.59-3.98L115.59 0L114.42 0L114.42-8.58L115.59-8.58L115.59-5.06ZM128.72-3.19L128.72-8.58L129.89-8.58L129.89-3.05Q129.75 0.05 126.38 0.14L126.38 0.14Q123.23 0.05 123.09-2.86L123.09-2.86L123.09-8.58L124.27-8.58L124.27-3.19Q124.31-0.84 126.42-0.80L126.42-0.80Q128.72-0.84 128.72-3.19L128.72-3.19ZM134.91-7.64L132.84-7.64L132.84-4.97L134.91-4.97Q136.73-4.92 136.69-6.38L136.69-6.38Q136.69-7.64 134.91-7.64L134.91-7.64ZM135.38 0L131.67 0L131.67-8.58L135.47-8.58Q137.77-8.48 137.86-6.42L137.86-6.42Q137.86-5.16 136.73-4.64L136.73-4.64Q138.33-4.08 138.33-2.53L138.33-2.53Q138.19-0.09 135.38 0L135.38 0ZM135.09-3.98L132.84-3.98L132.84-0.98L135.33-0.98Q137.11-1.03 137.16-2.53L137.16-2.53Q137.16-3.98 135.09-3.98L135.09-3.98ZM139.78-1.27L141.05-1.27L141.05 0L139.78 0L139.78-1.27ZM143.16-8.58L144.33-8.58L144.33 0L143.16 0L143.16-8.58ZM153.09-4.27L153.09-4.27Q152.91-7.64 150.09-7.83L150.09-7.83Q147.23-7.69 147.09-4.27L147.09-4.27Q147.23-0.94 150.09-0.80L150.09-0.80Q152.91-0.98 153.09-4.27ZM154.27-4.27L154.27-4.27Q153.98 0 150.09 0.14L150.09 0.14Q146.16 0 145.88-4.27L145.88-4.27Q146.11-8.72 150.09-8.81L150.09-8.81Q153.98-8.67 154.27-4.27Z" transform="translate(-1.03125, 8.8125)"></path></g></g></g></g><defs v-gra="od"></defs></svg>