<svg data-v-0dd9719b="" version="1.0" xmlns="http://www.w3.org/2000/svg" xmlns:xlink="http://www.w3.org/1999/xlink" width="100%" height="100%" viewBox="0 0 340.000000 250.000000" preserveAspectRatio="xMidYMid meet" color-interpolation-filters="sRGB" style="margin: auto;">   <g data-v-0dd9719b="" fill="#ffffff" class="icon-text-wrapper icon-svg-group iconsvg" transform="translate(49.67500305175781,95.77375030517578)"><g class="iconsvg-imagesvg" transform="translate(0,15.423309326171875)"><g><rect fill="#ffffff" fill-opacity="0" stroke-width="2" x="0" y="0" width="60" height="27.605880052451173" class="image-rect"></rect> <svg filter="url(#colors1258929223)" x="0" y="0" width="60" height="27.605880052451173" filtersec="colorsf2566256067" class="image-svg-svg primary" style="overflow: visible;"><svg xmlns="http://www.w3.org/2000/svg" data-name="Camada 1" viewBox="0.0000010903265774686588 26.995075225830078 99.99994659423828 46.00983810424805" x="0px" y="0px"><title>Infinity </title><circle cx="42.9545" cy="41.24437" r="2.67983"></circle><path d="M94.17993,34.61682a23.06874,23.06874,0,0,0-31.4-2.68,22.67123,22.67123,0,0,0-3.11,3.06L36.53,61.7132a18.60588,18.60588,0,0,1-2.43994,2.4,17.97853,17.97853,0,1,1-11.62-32.08,17.75513,17.75513,0,0,1,11.56995,3.82,2.50664,2.50664,0,0,0,4.02-2,2.5658,2.5658,0,0,0-.97-2.01,23.035,23.035,0,0,0-31.27,2.79,23.21845,23.21845,0,0,0,0,30.75,23.06874,23.06874,0,0,0,31.4,2.68005,22.67123,22.67123,0,0,0,3.11-3.06L63.47,38.2868a18.60588,18.60588,0,0,1,2.43994-2.4,17.97853,17.97853,0,1,1,11.62,32.08,17.75513,17.75513,0,0,1-11.57-3.82,2.50664,2.50664,0,0,0-4.02,2,2.5658,2.5658,0,0,0,.97,2.01,23.035,23.035,0,0,0,31.27-2.79A23.21845,23.21845,0,0,0,94.17993,34.61682Z"></path><circle cx="57.0455" cy="58.75562" r="2.67983"></circle></svg></svg> <defs><filter id="colors1258929223"><feColorMatrix type="matrix" values="0 0 0 0 0.99609375  0 0 0 0 0.99609375  0 0 0 0 0.99609375  0 0 0 1 0" class="icon-fecolormatrix"></feColorMatrix></filter> <filter id="colorsf2566256067"><feColorMatrix type="matrix" values="0 0 0 0 0.99609375  0 0 0 0 0.99609375  0 0 0 0 0.99609375  0 0 0 1 0" class="icon-fecolormatrix"></feColorMatrix></filter> <filter id="colorsb7221696197"><feColorMatrix type="matrix" values="0 0 0 0 0  0 0 0 0 0  0 0 0 0 0  0 0 0 1 0" class="icon-fecolormatrix"></feColorMatrix></filter></defs></g></g> <g transform="translate(67,0)"><g data-gra="path-name" fill-rule="" class="tp-name iconsvg-namesvg" transform="translate(0,0)"><g transform="scale(1)"><g><path d="M4.11 0L34.86 0 34.86-7.98 12.33-7.98 12.33-42.3 4.11-42.3ZM58.55-42.9L58.55-35.17C66.53-35.17 72.57-30.57 72.57-21.15 72.57-11.72 66.53-7.07 58.55-7.07 50.82-7.07 44.83-11.72 44.83-21.15 44.83-21.15 36.62-21.15 36.62-21.15 36.62-7.19 46.34 0.6 58.55 0.6 71.06 0.6 80.73-6.59 80.73-21.15 80.73-35.05 71.06-42.9 58.55-42.9ZM93.29-21.15C93.29-29.37 98.97-35.71 107.43-35.71 113.9-35.71 118.07-32.69 119.64-27.85L128.28-27.85C126.22-38.43 118.91-42.9 107.37-42.9 93.9-42.9 85.38-34.44 85.38-21.15ZM106.77 0L120.79-10.09 120.79 0 128.4 0C128.4-0.3 128.4-22.24 128.4-22.54L105.92-22.54 105.92-16.62 118.13-16.62 95.05 0ZM155.59-42.9L155.59-35.17C163.56-35.17 169.61-30.57 169.61-21.15 169.61-11.72 163.56-7.07 155.59-7.07 147.85-7.07 141.87-11.72 141.87-21.15 141.87-21.15 133.66-21.15 133.66-21.15 133.66-7.19 143.38 0.6 155.59 0.6 168.1 0.6 177.76-6.59 177.76-21.15 177.76-35.05 168.1-42.9 155.59-42.9Z" transform="translate(-4.110000133514404, 42.900001525878906)"></path></g> <!----> <!----> <!----> <!----> <!----> <!----> <!----></g></g> <g data-gra="path-slogan" fill-rule="" class="tp-slogan iconsvg-slogansvg" fill="#ffffff" transform="translate(10.204994201660156,49.5)"><!----> <!----> <g transform="scale(1, 1)"><g transform="scale(1)"><path d="M5.02-3.70L2.20-3.70L2.20 0L1.03 0L1.03-8.58L5.02-8.58Q7.88-8.58 7.88-6.28L7.88-6.28Q7.88-4.88 6.66-4.22L6.66-4.22Q7.69-3.94 7.69-2.58L7.69-2.58L7.78-1.03Q7.73-0.38 8.20-0.19L8.20-0.19L8.20 0L6.75 0Q6.61-0.61 6.56-2.16L6.56-2.16Q6.61-3.70 5.02-3.70L5.02-3.70ZM5.11-7.64L2.20-7.64L2.20-4.69L4.92-4.69Q6.66-4.69 6.66-6.19L6.66-6.19Q6.66-7.64 5.11-7.64L5.11-7.64ZM10.69-5.06L15.19-5.06L15.19-8.58L16.36-8.58L16.36 0L15.19 0L15.19-3.98L10.69-3.98L10.69 0L9.52 0L9.52-8.58L10.69-8.58L10.69-5.06ZM18.33-8.58L19.50-8.58L19.50 0L18.33 0L18.33-8.58ZM22.88-8.58L27.19-1.64L27.19-8.58L28.31-8.58L28.31 0L27 0L22.64-6.94L22.59-6.94L22.59 0L21.47 0L21.47-8.58L22.88-8.58ZM30.75-8.58L33.19-1.27L35.67-8.58L36.98-8.58L33.84 0L32.58 0L29.44-8.58L30.75-8.58ZM43.73 0L42.89-2.48L39.42-2.48L38.53 0L37.36 0L40.59-8.58L41.91-8.58L45 0L43.73 0ZM41.16-7.31L39.80-3.52L42.47-3.52L41.20-7.31L41.16-7.31ZM53.20-6.05L53.20-6.05L52.08-6.05Q51.66-7.78 49.69-7.83L49.69-7.83Q46.97-7.69 46.88-4.36L46.88-4.36Q46.88-0.80 49.73-0.80L49.73-0.80Q51.70-0.84 52.17-3.19L52.17-3.19L53.30-3.19Q52.78 0.05 49.50 0.14L49.50 0.14Q45.75 0 45.66-4.31L45.66-4.31Q45.84-8.63 49.69-8.81L49.69-8.81Q52.73-8.72 53.20-6.05ZM60.33 0L59.48-2.48L56.02-2.48L55.13 0L53.95 0L57.19-8.58L58.50-8.58L61.59 0L60.33 0ZM57.75-7.31L56.39-3.52L59.06-3.52L57.80-7.31L57.75-7.31ZM64.83-7.59L61.92-7.59L61.92-8.58L68.86-8.58L68.86-7.59L65.95-7.59L65.95 0L64.83 0L64.83-7.59ZM70.08-8.58L71.25-8.58L71.25 0L70.08 0L70.08-8.58ZM80.02-4.27L80.02-4.27Q79.83-7.64 77.02-7.83L77.02-7.83Q74.16-7.69 74.02-4.27L74.02-4.27Q74.16-0.94 77.02-0.80L77.02-0.80Q79.83-0.98 80.02-4.27ZM81.19-4.27L81.19-4.27Q80.91 0 77.02 0.14L77.02 0.14Q73.08 0 72.80-4.27L72.80-4.27Q73.03-8.72 77.02-8.81L77.02-8.81Q80.91-8.67 81.19-4.27ZM83.95-8.58L88.27-1.64L88.27-8.58L89.39-8.58L89.39 0L88.08 0L83.72-6.94L83.67-6.94L83.67 0L82.55 0L82.55-8.58L83.95-8.58ZM91.31-1.27L92.58-1.27L92.58 0L91.31 0L91.31-1.27ZM100.92-3.61L98.30-3.61L98.30-4.59L102.05-4.59L102.05 0L101.30 0L101.02-1.08Q100.03 0.09 98.20 0.14L98.20 0.14Q96.47 0.14 95.53-0.75L95.53-0.75Q94.13-2.06 94.17-4.36L94.17-4.36Q94.50-8.63 98.25-8.81L98.25-8.81Q101.44-8.63 101.91-6L101.91-6L100.78-6Q100.31-7.78 98.20-7.83L98.20-7.83Q95.53-7.64 95.39-4.31L95.39-4.31Q95.39-0.75 98.25-0.75L98.25-0.75Q99.28-0.75 100.03-1.31L100.03-1.31Q100.97-2.06 100.92-3.61L100.92-3.61ZM104.02-8.58L105.19-8.58L105.19 0L104.02 0L104.02-8.58ZM109.36-7.59L106.45-7.59L106.45-8.58L113.39-8.58L113.39-7.59L110.48-7.59L110.48 0L109.36 0L109.36-7.59ZM115.59-5.06L120.09-5.06L120.09-8.58L121.27-8.58L121.27 0L120.09 0L120.09-3.98L115.59-3.98L115.59 0L114.42 0L114.42-8.58L115.59-8.58L115.59-5.06ZM128.72-3.19L128.72-8.58L129.89-8.58L129.89-3.05Q129.75 0.05 126.38 0.14L126.38 0.14Q123.23 0.05 123.09-2.86L123.09-2.86L123.09-8.58L124.27-8.58L124.27-3.19Q124.31-0.84 126.42-0.80L126.42-0.80Q128.72-0.84 128.72-3.19L128.72-3.19ZM134.91-7.64L132.84-7.64L132.84-4.97L134.91-4.97Q136.73-4.92 136.69-6.38L136.69-6.38Q136.69-7.64 134.91-7.64L134.91-7.64ZM135.38 0L131.67 0L131.67-8.58L135.47-8.58Q137.77-8.48 137.86-6.42L137.86-6.42Q137.86-5.16 136.73-4.64L136.73-4.64Q138.33-4.08 138.33-2.53L138.33-2.53Q138.19-0.09 135.38 0L135.38 0ZM135.09-3.98L132.84-3.98L132.84-0.98L135.33-0.98Q137.11-1.03 137.16-2.53L137.16-2.53Q137.16-3.98 135.09-3.98L135.09-3.98ZM139.78-1.27L141.05-1.27L141.05 0L139.78 0L139.78-1.27ZM143.16-8.58L144.33-8.58L144.33 0L143.16 0L143.16-8.58ZM153.09-4.27L153.09-4.27Q152.91-7.64 150.09-7.83L150.09-7.83Q147.23-7.69 147.09-4.27L147.09-4.27Q147.23-0.94 150.09-0.80L150.09-0.80Q152.91-0.98 153.09-4.27ZM154.27-4.27L154.27-4.27Q153.98 0 150.09 0.14L150.09 0.14Q146.16 0 145.88-4.27L145.88-4.27Q146.11-8.72 150.09-8.81L150.09-8.81Q153.98-8.67 154.27-4.27Z" transform="translate(-1.03125, 8.8125)"></path></g></g></g></g></g><defs v-gra="od"></defs></svg>