<svg data-v-0dd9719b="" version="1.0" xmlns="http://www.w3.org/2000/svg" xmlns:xlink="http://www.w3.org/1999/xlink" width="100%" height="100%" viewBox="0 0 340.000000 250.000000" preserveAspectRatio="xMidYMid meet" color-interpolation-filters="sRGB" style="margin: auto;">   <g data-v-0dd9719b="" fill="#ffffff" class="icon-text-wrapper icon-svg-group iconsvg" transform="translate(64.84812927246094,90.21875)"><g class="iconsvg-imagesvg" transform="translate(0,21.73777198791504)"><g><rect fill="#ffffff" fill-opacity="0" stroke-width="2" x="0" y="0" width="60" height="26.086956521739133" class="image-rect"></rect> <svg filter="url(#colors557342604)" x="0" y="0" width="60" height="26.086956521739133" filtersec="colorsf9636998490" class="image-svg-svg primary" style="overflow: visible;"><svg xmlns="http://www.w3.org/2000/svg" xmlns:xlink="http://www.w3.org/1999/xlink" version="1.1" x="0px" y="0px" viewBox="0.5 7 23 10" style="enable-background:new 0 0 24 24;" xml:space="preserve"><g><g><path d="M18.696,7c-1.008,0-1.975,0.333-2.808,0.964c-0.043,0.02-0.083,0.046-0.12,0.078l-8.102,7.084    c-0.026,0.013-0.052,0.03-0.075,0.049C6.915,15.715,6.124,16,5.304,16C3.207,16,1.5,14.206,1.5,12s1.707-4,3.804-4    c0.82,0,1.611,0.285,2.286,0.825c0.014,0.011,0.029,0.022,0.044,0.031L8.785,10H7c-0.276,0-0.5,0.224-0.5,0.5S6.724,11,7,11h2.998    c0.066,0,0.133-0.013,0.195-0.039c0.061-0.025,0.116-0.062,0.161-0.108c0,0,0,0,0,0c0.003-0.003,0.004-0.007,0.007-0.01    c0.042-0.045,0.077-0.096,0.101-0.154c0.016-0.039,0.019-0.081,0.025-0.122C10.49,10.545,10.5,10.524,10.5,10.5v-3    C10.5,7.224,10.276,7,10,7S9.5,7.224,9.5,7.5v1.799L8.255,8.063c-0.041-0.04-0.088-0.072-0.138-0.095C7.283,7.334,6.313,7,5.304,7    C2.655,7,0.5,9.243,0.5,12s2.155,5,4.804,5c1.008,0,1.976-0.333,2.808-0.964c0.043-0.02,0.083-0.046,0.12-0.078l8.102-7.084    c0.026-0.013,0.051-0.03,0.075-0.049C17.085,8.285,17.876,8,18.696,8c2.097,0,3.804,1.794,3.804,4s-1.707,4-3.804,4    c-0.82,0-1.611-0.285-2.287-0.825c-0.014-0.011-0.029-0.022-0.044-0.031L15.214,14H17c0.276,0,0.5-0.224,0.5-0.5S17.276,13,17,13    h-3c-0.066,0-0.131,0.013-0.193,0.039c-0.04,0.017-0.072,0.044-0.105,0.07c-0.018,0.014-0.04,0.021-0.057,0.038    c-0.021,0.021-0.03,0.048-0.047,0.071c-0.021,0.03-0.045,0.057-0.06,0.091c-0.026,0.063-0.039,0.129-0.039,0.196V16.5    c0,0.276,0.224,0.5,0.5,0.5s0.5-0.224,0.5-0.5v-1.798l1.244,1.235c0.041,0.041,0.088,0.073,0.138,0.095    C16.716,16.666,17.686,17,18.696,17c2.649,0,4.804-2.243,4.804-5S21.345,7,18.696,7z"></path></g></g></svg></svg> <defs><filter id="colors557342604"><feColorMatrix type="matrix" values="0 0 0 0 0.99609375  0 0 0 0 0.99609375  0 0 0 0 0.99609375  0 0 0 1 0" class="icon-fecolormatrix"></feColorMatrix></filter> <filter id="colorsf9636998490"><feColorMatrix type="matrix" values="0 0 0 0 0.99609375  0 0 0 0 0.99609375  0 0 0 0 0.99609375  0 0 0 1 0" class="icon-fecolormatrix"></feColorMatrix></filter> <filter id="colorsb2276125860"><feColorMatrix type="matrix" values="0 0 0 0 0  0 0 0 0 0  0 0 0 0 0  0 0 0 1 0" class="icon-fecolormatrix"></feColorMatrix></filter></defs></g></g> <g transform="translate(67,0)"><g data-gra="path-name" fill-rule="" class="tp-name iconsvg-namesvg" transform="translate(0,0)"><g transform="scale(1)"><g><path d="M3.9-18.98L3.9-43.36 13.07-43.36 13.07-18.98Q13.26-14.37 13.46-12.87L13.46-12.87Q13.91-9.88 16.32-8.81 18.72-7.74 24.77-7.74L24.77-7.74 33.61-7.74 33.61 0 23.79 0Q16.84 0 13.71-0.78L13.71-0.78Q6.57-2.86 4.62-9.88L4.62-9.88Q3.9-12.61 3.9-18.98L3.9-18.98ZM53.43-32.11L53.43-32.11Q62.2-32.11 66.36-27.04L66.36-27.04Q70.2-22.43 70.2-15.41L70.2-15.41Q70.2-8 65.39-3.58L65.39-3.58Q60.97 0.46 53.3 0.46L53.3 0.46Q45.37 0.46 40.88-4.09L40.88-4.09Q36.73-8.19 36.73-16.05L36.73-16.05Q36.73-22.69 40.69-27.11L40.69-27.11Q45.11-32.05 53.43-32.11ZM53.49-25.48L53.49-25.48Q45.63-25.48 45.63-15.73L45.63-15.73Q45.63-11.77 46.93-9.69L46.93-9.69Q49.08-6.17 53.56-6.17L53.56-6.17Q61.3-6.17 61.3-15.86L61.3-15.86Q61.3-25.35 53.49-25.48ZM90.74-31.66L106.99-31.66 106.99-0.2Q106.99 2.47 106.37 4.55 105.75 6.63 104.59 8.06L104.59 8.06Q103.09 9.88 100.98 10.56 98.86 11.25 94.83 11.25L94.83 11.25 77.48 11.25 77.48 4.49 93.66 4.49Q96.53 4.49 97.4 3.61 98.28 2.73 98.28 0L98.28 0 90.28 0Q86.45 0 83.95-0.81 81.44-1.63 79.43-3.51L79.43-3.51Q74.69-8 74.69-15.86L74.69-15.86Q74.69-24.83 80.47-28.93L80.47-28.93Q82.55-30.42 84.86-31.04 87.16-31.66 90.74-31.66L90.74-31.66ZM98.28-6.76L98.28-24.89 91.06-24.89Q83.52-24.89 83.52-15.79L83.52-15.79Q83.52-11.38 85.57-9.07 87.62-6.76 91.52-6.76L91.52-6.76 98.28-6.76ZM130.13-32.11L130.13-32.11Q138.91-32.11 143.06-27.04L143.06-27.04Q146.9-22.43 146.9-15.41L146.9-15.41Q146.9-8 142.09-3.58L142.09-3.58Q137.67 0.46 130 0.46L130 0.46Q122.07 0.46 117.59-4.09L117.59-4.09Q113.42-8.19 113.42-16.05L113.42-16.05Q113.42-22.69 117.39-27.11L117.39-27.11Q121.81-32.05 130.13-32.11ZM130.19-25.48L130.19-25.48Q122.33-25.48 122.33-15.73L122.33-15.73Q122.33-11.77 123.63-9.69L123.63-9.69Q125.78-6.17 130.26-6.17L130.26-6.17Q138-6.17 138-15.86L138-15.86Q138-25.35 130.19-25.48Z" transform="translate(-3.9000000953674316, 43.36000061035156)"></path></g> <!----> <!----> <!----> <!----> <!----> <!----> <!----></g></g> <g data-gra="path-slogan" fill-rule="" class="tp-slogan iconsvg-slogansvg" fill="#ffffff" transform="translate(-0.30500030517578125,60.61000061035156)"><rect width="0"></rect> <rect x="146.61000061035156" width="0"></rect> <g transform="translate(0,0)"><g transform="scale(1)"><path d="M5.02-3.70L2.20-3.70L2.20 0L1.03 0L1.03-8.58L5.02-8.58Q7.88-8.58 7.88-6.28L7.88-6.28Q7.88-4.88 6.66-4.22L6.66-4.22Q7.69-3.94 7.69-2.58L7.69-2.58L7.78-1.03Q7.73-0.38 8.20-0.19L8.20-0.19L8.20 0L6.75 0Q6.61-0.61 6.56-2.16L6.56-2.16Q6.61-3.70 5.02-3.70L5.02-3.70ZM5.11-7.64L2.20-7.64L2.20-4.69L4.92-4.69Q6.66-4.69 6.66-6.19L6.66-6.19Q6.66-7.64 5.11-7.64L5.11-7.64ZM10.23-5.06L14.73-5.06L14.73-8.58L15.90-8.58L15.90 0L14.73 0L14.73-3.98L10.23-3.98L10.23 0L9.06 0L9.06-8.58L10.23-8.58L10.23-5.06ZM17.41-8.58L18.58-8.58L18.58 0L17.41 0L17.41-8.58ZM21.50-8.58L25.81-1.64L25.81-8.58L26.94-8.58L26.94 0L25.63 0L21.27-6.94L21.22-6.94L21.22 0L20.09 0L20.09-8.58L21.50-8.58ZM28.92-8.58L31.35-1.27L33.84-8.58L35.15-8.58L32.01 0L30.74 0L27.60-8.58L28.92-8.58ZM41.44 0L40.60-2.48L37.13-2.48L36.24 0L35.07 0L38.30-8.58L39.61-8.58L42.71 0L41.44 0ZM38.86-7.31L37.51-3.52L40.18-3.52L38.91-7.31L38.86-7.31ZM50.45-6.05L50.45-6.05L49.33-6.05Q48.91-7.78 46.94-7.83L46.94-7.83Q44.22-7.69 44.13-4.36L44.13-4.36Q44.13-0.80 46.98-0.80L46.98-0.80Q48.95-0.84 49.42-3.19L49.42-3.19L50.55-3.19Q50.03 0.05 46.75 0.14L46.75 0.14Q43.00 0 42.91-4.31L42.91-4.31Q43.09-8.63 46.94-8.81L46.94-8.81Q49.98-8.72 50.45-6.05ZM57.12 0L56.28-2.48L52.81-2.48L51.92 0L50.75 0L53.98-8.58L55.29-8.58L58.39 0L57.12 0ZM54.54-7.31L53.18-3.52L55.85-3.52L54.59-7.31L54.54-7.31ZM61.16-7.59L58.26-7.59L58.26-8.58L65.19-8.58L65.19-7.59L62.29-7.59L62.29 0L61.16 0L61.16-7.59ZM65.95-8.58L67.13-8.58L67.13 0L65.95 0L65.95-8.58ZM75.43-4.27L75.43-4.27Q75.25-7.64 72.43-7.83L72.43-7.83Q69.57-7.69 69.43-4.27L69.43-4.27Q69.57-0.94 72.43-0.80L72.43-0.80Q75.25-0.98 75.43-4.27ZM76.60-4.27L76.60-4.27Q76.32 0 72.43 0.14L72.43 0.14Q68.50 0 68.21-4.27L68.21-4.27Q68.45-8.72 72.43-8.81L72.43-8.81Q76.32-8.67 76.60-4.27ZM78.91-8.58L83.22-1.64L83.22-8.58L84.35-8.58L84.35 0L83.04 0L78.68-6.94L78.63-6.94L78.63 0L77.51 0L77.51-8.58L78.91-8.58ZM85.81-1.27L87.08-1.27L87.08 0L85.81 0L85.81-1.27ZM94.96-3.61L92.34-3.61L92.34-4.59L96.09-4.59L96.09 0L95.34 0L95.06-1.08Q94.07 0.09 92.25 0.14L92.25 0.14Q90.51 0.14 89.57-0.75L89.57-0.75Q88.17-2.06 88.21-4.36L88.21-4.36Q88.54-8.63 92.29-8.81L92.29-8.81Q95.48-8.63 95.95-6L95.95-6L94.82-6Q94.35-7.78 92.25-7.83L92.25-7.83Q89.57-7.64 89.43-4.31L89.43-4.31Q89.43-0.75 92.29-0.75L92.29-0.75Q93.32-0.75 94.07-1.31L94.07-1.31Q95.01-2.06 94.96-3.61L94.96-3.61ZM97.60-8.58L98.77-8.58L98.77 0L97.60 0L97.60-8.58ZM102.48-7.59L99.58-7.59L99.58-8.58L106.52-8.58L106.52-7.59L103.61-7.59L103.61 0L102.48 0L102.48-7.59ZM108.26-5.06L112.76-5.06L112.76-8.58L113.93-8.58L113.93 0L112.76 0L112.76-3.98L108.26-3.98L108.26 0L107.09 0L107.09-8.58L108.26-8.58L108.26-5.06ZM120.93-3.19L120.93-8.58L122.10-8.58L122.10-3.05Q121.96 0.05 118.58 0.14L118.58 0.14Q115.44 0.05 115.30-2.86L115.30-2.86L115.30-8.58L116.47-8.58L116.47-3.19Q116.52-0.84 118.63-0.80L118.63-0.80Q120.93-0.84 120.93-3.19L120.93-3.19ZM126.66-7.64L124.59-7.64L124.59-4.97L126.66-4.97Q128.48-4.92 128.44-6.38L128.44-6.38Q128.44-7.64 126.66-7.64L126.66-7.64ZM127.13 0L123.42 0L123.42-8.58L127.22-8.58Q129.52-8.48 129.61-6.42L129.61-6.42Q129.61-5.16 128.48-4.64L128.48-4.64Q130.08-4.08 130.08-2.53L130.08-2.53Q129.94-0.09 127.13 0L127.13 0ZM126.84-3.98L124.59-3.98L124.59-0.98L127.08-0.98Q128.86-1.03 128.91-2.53L128.91-2.53Q128.91-3.98 126.84-3.98L126.84-3.98ZM131.07-1.27L132.34-1.27L132.34 0L131.07 0L131.07-1.27ZM133.99-8.58L135.16-8.58L135.16 0L133.99 0L133.99-8.58ZM143.47-4.27L143.47-4.27Q143.28-7.64 140.47-7.83L140.47-7.83Q137.61-7.69 137.47-4.27L137.47-4.27Q137.61-0.94 140.47-0.80L140.47-0.80Q143.28-0.98 143.47-4.27ZM144.64-4.27L144.64-4.27Q144.36 0 140.47 0.14L140.47 0.14Q136.53 0 136.25-4.27L136.25-4.27Q136.49-8.72 140.47-8.81L140.47-8.81Q144.36-8.67 144.64-4.27Z" transform="translate(-1.03125, 8.8125)"></path></g></g></g></g></g><defs v-gra="od"></defs></svg>