<svg data-v-0dd9719b="" version="1.0" xmlns="http://www.w3.org/2000/svg" xmlns:xlink="http://www.w3.org/1999/xlink" width="100%" height="100%" viewBox="0 0 340.000000 250.000000" preserveAspectRatio="xMidYMid meet" color-interpolation-filters="sRGB" style="margin: auto;">   <g data-v-0dd9719b="" fill="#1c085d" class="icon-text-wrapper icon-svg-group iconsvg" transform="translate(64.74812316894531,88.3387451171875)"><g class="iconsvg-imagesvg" transform="translate(0,22.858314514160156)"><g><rect fill="#1c085d" fill-opacity="0" stroke-width="2" x="0" y="0" width="60" height="27.605880052451173" class="image-rect"></rect> <svg filter="url(#colors9561049398)" x="0" y="0" width="60" height="27.605880052451173" filtersec="colorsf8249253006" class="image-svg-svg primary" style="overflow: visible;"><svg xmlns="http://www.w3.org/2000/svg" data-name="Camada 1" viewBox="0.0000010903265774686588 26.995075225830078 99.99994659423828 46.00983810424805" x="0px" y="0px"><title>Infinity </title><circle cx="42.9545" cy="41.24437" r="2.67983"></circle><path d="M94.17993,34.61682a23.06874,23.06874,0,0,0-31.4-2.68,22.67123,22.67123,0,0,0-3.11,3.06L36.53,61.7132a18.60588,18.60588,0,0,1-2.43994,2.4,17.97853,17.97853,0,1,1-11.62-32.08,17.75513,17.75513,0,0,1,11.56995,3.82,2.50664,2.50664,0,0,0,4.02-2,2.5658,2.5658,0,0,0-.97-2.01,23.035,23.035,0,0,0-31.27,2.79,23.21845,23.21845,0,0,0,0,30.75,23.06874,23.06874,0,0,0,31.4,2.68005,22.67123,22.67123,0,0,0,3.11-3.06L63.47,38.2868a18.60588,18.60588,0,0,1,2.43994-2.4,17.97853,17.97853,0,1,1,11.62,32.08,17.75513,17.75513,0,0,1-11.57-3.82,2.50664,2.50664,0,0,0-4.02,2,2.5658,2.5658,0,0,0,.97,2.01,23.035,23.035,0,0,0,31.27-2.79A23.21845,23.21845,0,0,0,94.17993,34.61682Z"></path><circle cx="57.0455" cy="58.75562" r="2.67983"></circle></svg></svg> <defs><filter id="colors9561049398"><feColorMatrix type="matrix" values="0 0 0 0 0.109375  0 0 0 0 0.03125  0 0 0 0 0.36328125  0 0 0 1 0" class="icon-fecolormatrix"></feColorMatrix></filter> <filter id="colorsf8249253006"><feColorMatrix type="matrix" values="0 0 0 0 0.99609375  0 0 0 0 0.99609375  0 0 0 0 0.99609375  0 0 0 1 0" class="icon-fecolormatrix"></feColorMatrix></filter> <filter id="colorsb7383582121"><feColorMatrix type="matrix" values="0 0 0 0 0  0 0 0 0 0  0 0 0 0 0  0 0 0 1 0" class="icon-fecolormatrix"></feColorMatrix></filter></defs></g></g> <g transform="translate(67,0)"><g data-gra="path-name" fill-rule="" class="tp-name iconsvg-namesvg" transform="translate(0,0)"><g transform="scale(1)"><g><path d="M8.91 0Q7.02 0 5.98-1.04 4.94-2.08 4.94-3.9L4.94-3.9 4.94-41.99Q4.94-43.88 6.08-45.01 7.21-46.15 9.1-46.15L9.1-46.15Q11.05-46.15 12.19-45.01 13.33-43.88 13.33-41.99L13.33-41.99 13.33-6.89 31.59-6.89Q35.49-6.89 35.49-3.45L35.49-3.45Q35.49 0 31.59 0L31.59 0 8.91 0ZM54.6 0.52Q49.73 0.52 46.05-1.5 42.38-3.51 40.37-7.28 38.35-11.05 38.35-16.05L38.35-16.05Q38.35-21.06 40.37-24.8 42.38-28.54 46.05-30.55 49.73-32.56 54.6-32.56L54.6-32.56Q59.48-32.56 63.15-30.55 66.82-28.54 68.8-24.8 70.78-21.06 70.78-16.05L70.78-16.05Q70.78-11.05 68.8-7.28 66.82-3.51 63.15-1.5 59.48 0.52 54.6 0.52L54.6 0.52ZM54.54-5.79Q58.5-5.79 60.58-8.38 62.66-10.99 62.66-16.05L62.66-16.05Q62.66-21.06 60.58-23.69 58.5-26.32 54.6-26.32L54.6-26.32Q50.7-26.32 48.59-23.69 46.48-21.06 46.48-16.05L46.48-16.05Q46.48-10.99 48.56-8.38 50.64-5.79 54.54-5.79L54.54-5.79ZM104.39-32.44Q106.21-32.44 107.31-31.39 108.42-30.36 108.42-28.6L108.42-28.6 108.42-2.93Q108.42 4.55 104.26 8.38 100.1 12.22 91.97 12.22L91.97 12.22Q84.89 12.22 80.14 9.55L80.14 9.55Q77.74 8.13 77.74 6.11L77.74 6.11Q77.74 4.68 78.42 3.83 79.1 2.99 80.21 2.99L80.21 2.99Q80.8 2.99 81.64 3.28 82.48 3.58 83.39 3.97L83.39 3.97Q85.73 4.94 87.59 5.46 89.44 5.98 91.84 5.98L91.84 5.98Q100.36 5.98 100.36-2.34L100.36-2.34 100.36-6.5Q98.93-3.83 96.2-2.37 93.47-0.91 89.96-0.91L89.96-0.91Q85.8-0.91 82.58-2.89 79.36-4.88 77.55-8.45 75.72-12.03 75.72-16.71L75.72-16.71Q75.72-21.39 77.51-24.99 79.3-28.6 82.55-30.58 85.8-32.56 89.96-32.56L89.96-32.56Q93.47-32.56 96.2-31.1 98.93-29.64 100.36-26.98L100.36-26.98 100.36-28.67Q100.36-30.36 101.47-31.39 102.57-32.44 104.39-32.44L104.39-32.44ZM92.1-7.21Q96-7.21 98.18-9.75 100.36-12.29 100.36-16.71L100.36-16.71Q100.36-21.19 98.18-23.73 96-26.26 92.1-26.26L92.1-26.26Q88.27-26.26 86.06-23.73 83.85-21.19 83.85-16.71L83.85-16.71Q83.85-12.29 86.06-9.75 88.27-7.21 92.1-7.21L92.1-7.21ZM131.3 0.52Q126.42 0.52 122.75-1.5 119.08-3.51 117.06-7.28 115.05-11.05 115.05-16.05L115.05-16.05Q115.05-21.06 117.06-24.8 119.08-28.54 122.75-30.55 126.42-32.56 131.3-32.56L131.3-32.56Q136.18-32.56 139.85-30.55 143.52-28.54 145.5-24.8 147.49-21.06 147.49-16.05L147.49-16.05Q147.49-11.05 145.5-7.28 143.52-3.51 139.85-1.5 136.18 0.52 131.3 0.52L131.3 0.52ZM131.24-5.79Q135.2-5.79 137.28-8.38 139.36-10.99 139.36-16.05L139.36-16.05Q139.36-21.06 137.28-23.69 135.2-26.32 131.3-26.32L131.3-26.32Q127.4-26.32 125.29-23.69 123.17-21.06 123.17-16.05L123.17-16.05Q123.17-10.99 125.25-8.38 127.33-5.79 131.24-5.79L131.24-5.79Z" transform="translate(-4.940000057220459, 46.150001525878906)"></path></g> <!----> <!----> <!----> <!----> <!----> <!----> <!----></g></g> <g data-gra="path-slogan" fill-rule="" class="tp-slogan iconsvg-slogansvg" fill="#1c085d" transform="translate(-0.9550018310546875,64.37000274658203)"><!----> <!----> <g transform="scale(1, 1)"><g transform="scale(1)"><path d="M5.02-3.70L2.20-3.70L2.20 0L1.03 0L1.03-8.58L5.02-8.58Q7.88-8.58 7.88-6.28L7.88-6.28Q7.88-4.88 6.66-4.22L6.66-4.22Q7.69-3.94 7.69-2.58L7.69-2.58L7.78-1.03Q7.73-0.38 8.20-0.19L8.20-0.19L8.20 0L6.75 0Q6.61-0.61 6.56-2.16L6.56-2.16Q6.61-3.70 5.02-3.70L5.02-3.70ZM5.11-7.64L2.20-7.64L2.20-4.69L4.92-4.69Q6.66-4.69 6.66-6.19L6.66-6.19Q6.66-7.64 5.11-7.64L5.11-7.64ZM10.27-5.06L14.77-5.06L14.77-8.58L15.94-8.58L15.94 0L14.77 0L14.77-3.98L10.27-3.98L10.27 0L9.10 0L9.10-8.58L10.27-8.58L10.27-5.06ZM17.49-8.58L18.66-8.58L18.66 0L17.49 0L17.49-8.58ZM21.62-8.58L25.93-1.64L25.93-8.58L27.06-8.58L27.06 0L25.75 0L21.39-6.94L21.34-6.94L21.34 0L20.21 0L20.21-8.58L21.62-8.58ZM29.08-8.58L31.52-1.27L34.00-8.58L35.31-8.58L32.17 0L30.91 0L27.77-8.58L29.08-8.58ZM41.64 0L40.80-2.48L37.33-2.48L36.44 0L35.27 0L38.50-8.58L39.82-8.58L42.91 0L41.64 0ZM39.07-7.31L37.71-3.52L40.38-3.52L39.11-7.31L39.07-7.31ZM50.69-6.05L50.69-6.05L49.57-6.05Q49.15-7.78 47.18-7.83L47.18-7.83Q44.46-7.69 44.37-4.36L44.37-4.36Q44.37-0.80 47.23-0.80L47.23-0.80Q49.19-0.84 49.66-3.19L49.66-3.19L50.79-3.19Q50.27 0.05 46.99 0.14L46.99 0.14Q43.24 0 43.15-4.31L43.15-4.31Q43.34-8.63 47.18-8.81L47.18-8.81Q50.23-8.72 50.69-6.05ZM57.40 0L56.56-2.48L53.09-2.48L52.20 0L51.03 0L54.26-8.58L55.57-8.58L58.67 0L57.40 0ZM54.82-7.31L53.46-3.52L56.14-3.52L54.87-7.31L54.82-7.31ZM61.48-7.59L58.58-7.59L58.58-8.58L65.51-8.58L65.51-7.59L62.61-7.59L62.61 0L61.48 0L61.48-7.59ZM66.32-8.58L67.49-8.58L67.49 0L66.32 0L66.32-8.58ZM75.83-4.27L75.83-4.27Q75.65-7.64 72.83-7.83L72.83-7.83Q69.98-7.69 69.83-4.27L69.83-4.27Q69.98-0.94 72.83-0.80L72.83-0.80Q75.65-0.98 75.83-4.27ZM77.01-4.27L77.01-4.27Q76.73 0 72.83 0.14L72.83 0.14Q68.90 0 68.62-4.27L68.62-4.27Q68.85-8.72 72.83-8.81L72.83-8.81Q76.73-8.67 77.01-4.27ZM79.35-8.58L83.67-1.64L83.67-8.58L84.79-8.58L84.79 0L83.48 0L79.12-6.94L79.07-6.94L79.07 0L77.95 0L77.95-8.58L79.35-8.58ZM86.30-1.27L87.56-1.27L87.56 0L86.30 0L86.30-1.27ZM95.49-3.61L92.86-3.61L92.86-4.59L96.61-4.59L96.61 0L95.86 0L95.58-1.08Q94.60 0.09 92.77 0.14L92.77 0.14Q91.03 0.14 90.10-0.75L90.10-0.75Q88.69-2.06 88.74-4.36L88.74-4.36Q89.07-8.63 92.82-8.81L92.82-8.81Q96.00-8.63 96.47-6L96.47-6L95.35-6Q94.88-7.78 92.77-7.83L92.77-7.83Q90.10-7.64 89.96-4.31L89.96-4.31Q89.96-0.75 92.82-0.75L92.82-0.75Q93.85-0.75 94.60-1.31L94.60-1.31Q95.53-2.06 95.49-3.61L95.49-3.61ZM98.16-8.58L99.33-8.58L99.33 0L98.16 0L98.16-8.58ZM103.09-7.59L100.18-7.59L100.18-8.58L107.12-8.58L107.12-7.59L104.21-7.59L104.21 0L103.09 0L103.09-7.59ZM108.90-5.06L113.40-5.06L113.40-8.58L114.58-8.58L114.58 0L113.40 0L113.40-3.98L108.90-3.98L108.90 0L107.73 0L107.73-8.58L108.90-8.58L108.90-5.06ZM121.61-3.19L121.61-8.58L122.78-8.58L122.78-3.05Q122.64 0.05 119.27 0.14L119.27 0.14Q116.13 0.05 115.99-2.86L115.99-2.86L115.99-8.58L117.16-8.58L117.16-3.19Q117.21-0.84 119.31-0.80L119.31-0.80Q121.61-0.84 121.61-3.19L121.61-3.19ZM127.38-7.64L125.32-7.64L125.32-4.97L127.38-4.97Q129.21-4.92 129.16-6.38L129.16-6.38Q129.16-7.64 127.38-7.64L127.38-7.64ZM127.85 0L124.15 0L124.15-8.58L127.94-8.58Q130.24-8.48 130.33-6.42L130.33-6.42Q130.33-5.16 129.21-4.64L129.21-4.64Q130.80-4.08 130.80-2.53L130.80-2.53Q130.66-0.09 127.85 0L127.85 0ZM127.57-3.98L125.32-3.98L125.32-0.98L127.80-0.98Q129.58-1.03 129.63-2.53L129.63-2.53Q129.63-3.98 127.57-3.98L127.57-3.98ZM131.84-1.27L133.10-1.27L133.10 0L131.84 0L131.84-1.27ZM134.79-8.58L135.97-8.58L135.97 0L134.79 0L134.79-8.58ZM144.31-4.27L144.31-4.27Q144.13-7.64 141.31-7.83L141.31-7.83Q138.46-7.69 138.31-4.27L138.31-4.27Q138.46-0.94 141.31-0.80L141.31-0.80Q144.13-0.98 144.31-4.27ZM145.49-4.27L145.49-4.27Q145.21 0 141.31 0.14L141.31 0.14Q137.38 0 137.10-4.27L137.10-4.27Q137.33-8.72 141.31-8.81L141.31-8.81Q145.21-8.67 145.49-4.27Z" transform="translate(-1.03125, 8.8125)"></path></g></g></g></g></g><defs v-gra="od"></defs></svg>